<?xml version="1.0" encoding="UTF-8"?>
<svg id="Capa_2" data-name="Capa 2" xmlns="http://www.w3.org/2000/svg" viewBox="0 0 511.99 512">
  <defs>
    <style>
      .cls-1 {
        fill: #fff;
      }
    </style>
  </defs>
  <g id="svg8">
    <g id="layer1">
      <g id="g19650">
        <path id="path16327" class="cls-1" d="M256,0c-14.14,0-25.6,11.46-25.6,25.6v296.59l-58.7-58.7c-10-9.99-26.2-9.99-36.2,0-9.99,10-9.99,26.2,0,36.2l102.4,102.4c10,9.99,26.2,9.99,36.2,0l102.4-102.4c9.99-10,9.99-26.2,0-36.2-4.8-4.8-11.31-7.5-18.1-7.5-6.79,0-13.3,2.7-18.1,7.5l-58.7,58.7V25.6c0-14.14-11.46-25.6-25.6-25.6Z"/>
        <path id="path17438" class="cls-1" d="M25.6,343.4c-14.14,0-25.6,11.46-25.6,25.6v53.4c0,49.19,40.4,89.6,89.6,89.6h332.79c49.19,0,89.6-40.4,89.6-89.6v-53.4c0-14.14-11.46-25.6-25.6-25.6s-25.6,11.46-25.6,25.6v53.4c0,21.72-16.68,38.4-38.4,38.4H89.6c-21.72,0-38.4-16.68-38.4-38.4v-53.4c0-14.14-11.46-25.6-25.6-25.6Z"/>
      </g>
    </g>
  </g>
</svg>